<svg width="960" height="640" viewBox="0 0 960 640" fill="none" xmlns="http://www.w3.org/2000/svg">
  <defs>
    <linearGradient id="bg" x1="140" y1="80" x2="760" y2="520" gradientUnits="userSpaceOnUse">
      <stop stop-color="#0B1725"/>
      <stop offset="1" stop-color="#09111B"/>
    </linearGradient>
    <linearGradient id="glow" x1="218" y1="140" x2="666" y2="466" gradientUnits="userSpaceOnUse">
      <stop stop-color="#67E8F9"/>
      <stop offset="0.54" stop-color="#8CF5FF"/>
      <stop offset="1" stop-color="#F6B84E"/>
    </linearGradient>
    <radialGradient id="spot" cx="0" cy="0" r="1" gradientUnits="userSpaceOnUse" gradientTransform="translate(616 176) rotate(139.342) scale(306.664 297.715)">
      <stop stop-color="#67E8F9" stop-opacity="0.24"/>
      <stop offset="1" stop-color="#67E8F9" stop-opacity="0"/>
    </radialGradient>
    <filter id="shadow" x="140" y="110" width="604" height="440" filterUnits="userSpaceOnUse" color-interpolation-filters="sRGB">
      <feFlood flood-opacity="0" result="BackgroundImageFix"/>
      <feColorMatrix in="SourceAlpha" type="matrix" values="0 0 0 0 0 0 0 0 0 0 0 0 0 0 0 0 0 0 127 0" result="hardAlpha"/>
      <feOffset dy="28"/>
      <feGaussianBlur stdDeviation="30"/>
      <feColorMatrix type="matrix" values="0 0 0 0 0.0104575 0 0 0 0 0.0528817 0 0 0 0 0.0982784 0 0 0 0.42 0"/>
      <feBlend mode="normal" in2="BackgroundImageFix" result="effect1_dropShadow_1_1"/>
      <feBlend mode="normal" in="SourceGraphic" in2="effect1_dropShadow_1_1" result="shape"/>
    </filter>
  </defs>

  <rect width="960" height="640" rx="32" fill="url(#bg)"/>
  <rect width="960" height="640" rx="32" fill="url(#spot)"/>
  <circle cx="794" cy="112" r="110" fill="#F6B84E" fill-opacity="0.08"/>
  <circle cx="184" cy="548" r="138" fill="#67E8F9" fill-opacity="0.08"/>

  <g filter="url(#shadow)">
    <path d="M350.379 139L390.23 148.219L430.494 136.556L454.198 145.577L482.259 177.879L521.63 196.601L536.111 226.15L520.913 252.046L541.197 286.226L573.102 304.472L592.656 349.22L621.493 367.839L642 401.537L623.916 430.179L586.729 445.012L548.233 486.933L501.852 493.949L471.11 520L430.907 511.986L408.351 476.945L372.407 466.98L356.579 439.2L324.776 420.32L302.116 384.392L271.681 375.325L257 331.452L272.198 299.198L253.529 271.418L258.765 232.745L281.372 209.884L289.181 175.389L318.177 163.463L350.379 139Z" fill="url(#glow)" fill-opacity="0.12" stroke="url(#glow)" stroke-width="8" stroke-linejoin="round"/>
  </g>

  <path d="M350.379 139L390.23 148.219L430.494 136.556L454.198 145.577L482.259 177.879L521.63 196.601L536.111 226.15L520.913 252.046L541.197 286.226L573.102 304.472L592.656 349.22L621.493 367.839L642 401.537L623.916 430.179L586.729 445.012L548.233 486.933L501.852 493.949L471.11 520L430.907 511.986L408.351 476.945L372.407 466.98L356.579 439.2L324.776 420.32L302.116 384.392L271.681 375.325L257 331.452L272.198 299.198L253.529 271.418L258.765 232.745L281.372 209.884L289.181 175.389L318.177 163.463L350.379 139Z" fill="url(#glow)" fill-opacity="0.18" stroke="url(#glow)" stroke-width="4" stroke-linejoin="round"/>

  <circle cx="504" cy="274" r="10" fill="#67E8F9"/>
  <circle cx="504" cy="274" r="24" stroke="#67E8F9" stroke-opacity="0.32" stroke-width="2"/>
  <circle cx="504" cy="274" r="42" stroke="#67E8F9" stroke-opacity="0.16" stroke-width="2"/>

  <path d="M504 274C562.102 244.43 603.789 224.321 629.061 213.674" stroke="#67E8F9" stroke-width="2.5" stroke-linecap="round" stroke-dasharray="7 10"/>
  <path d="M504 274C464.516 333.823 436.388 377.267 419.615 404.332" stroke="#F6B84E" stroke-width="2.5" stroke-linecap="round" stroke-dasharray="7 10"/>
  <path d="M504 274C419.947 244.951 355.796 223.575 311.546 209.874" stroke="#8CF5FF" stroke-width="2.5" stroke-linecap="round" stroke-dasharray="7 10"/>

  <g opacity="0.95">
    <rect x="630" y="163" width="178" height="72" rx="18" fill="#101B29" stroke="#24374D"/>
    <text x="654" y="191" fill="#9AB0C4" font-family="Space Grotesk, Arial, sans-serif" font-size="14" letter-spacing="1.4">PRESENCA DIGITAL</text>
    <text x="654" y="217" fill="#F5F7FB" font-family="Space Grotesk, Arial, sans-serif" font-size="26" font-weight="700">Todo o Brasil</text>
  </g>

  <g opacity="0.95">
    <rect x="154" y="184" width="154" height="64" rx="18" fill="#101B29" stroke="#24374D"/>
    <text x="178" y="211" fill="#9AB0C4" font-family="Space Grotesk, Arial, sans-serif" font-size="14" letter-spacing="1.4">ATENDIMENTO</text>
    <text x="178" y="235" fill="#F5F7FB" font-family="Space Grotesk, Arial, sans-serif" font-size="22" font-weight="700">Remoto e consultivo</text>
  </g>

  <g opacity="0.95">
    <rect x="366" y="422" width="212" height="84" rx="18" fill="#101B29" stroke="#24374D"/>
    <text x="390" y="451" fill="#9AB0C4" font-family="Space Grotesk, Arial, sans-serif" font-size="14" letter-spacing="1.4">FOCO DA CKDEV</text>
    <text x="390" y="479" fill="#F5F7FB" font-family="Space Grotesk, Arial, sans-serif" font-size="24" font-weight="700">Automacao, dashboards</text>
    <text x="390" y="500" fill="#F5F7FB" font-family="Space Grotesk, Arial, sans-serif" font-size="24" font-weight="700">e ganho operacional</text>
  </g>
</svg>
